<mxfile host="app.diagrams.net" modified="2022-03-30T18:22:13.521Z" agent="5.0 (Windows NT 10.0; Win64; x64) AppleWebKit/537.36 (KHTML, like Gecko) Chrome/99.0.4844.82 Safari/537.36" etag="J5EqOWVCvXSMmLvODKJQ" version="17.2.4" type="github">
  <diagram id="HR-ztwO93CwpJqb8mCAe" name="Page-1">
    <mxGraphModel dx="782" dy="446" grid="1" gridSize="10" guides="1" tooltips="1" connect="1" arrows="1" fold="1" page="1" pageScale="1" pageWidth="827" pageHeight="1169" math="0" shadow="0">
      <root>
        <mxCell id="0" />
        <mxCell id="1" parent="0" />
        <mxCell id="cMNd7rIfIgeKiUjHtPdR-21" value="" style="rounded=1;whiteSpace=wrap;html=1;fontColor=default;fillColor=none;" vertex="1" parent="1">
          <mxGeometry x="478" y="69" width="152" height="291" as="geometry" />
        </mxCell>
        <mxCell id="cMNd7rIfIgeKiUjHtPdR-1" value="" style="sketch=0;outlineConnect=0;fontColor=#232F3E;gradientColor=none;fillColor=#D45B07;strokeColor=none;dashed=0;verticalLabelPosition=bottom;verticalAlign=top;align=center;html=1;fontSize=12;fontStyle=0;aspect=fixed;pointerEvents=1;shape=mxgraph.aws4.lambda_function;" vertex="1" parent="1">
          <mxGeometry x="336.38" y="144" width="60.75" height="60.75" as="geometry" />
        </mxCell>
        <mxCell id="cMNd7rIfIgeKiUjHtPdR-2" value="" style="sketch=0;pointerEvents=1;shadow=0;dashed=0;html=1;strokeColor=none;fillColor=#505050;labelPosition=center;verticalLabelPosition=bottom;verticalAlign=top;outlineConnect=0;align=center;shape=mxgraph.office.devices.cell_phone_android_standalone;" vertex="1" parent="1">
          <mxGeometry x="187" y="165" width="24" height="44" as="geometry" />
        </mxCell>
        <mxCell id="cMNd7rIfIgeKiUjHtPdR-5" value="" style="verticalLabelPosition=bottom;html=1;verticalAlign=top;align=center;strokeColor=none;fillColor=#333333;shape=mxgraph.azure.laptop;pointerEvents=1;" vertex="1" parent="1">
          <mxGeometry x="174" y="230" width="50" height="30" as="geometry" />
        </mxCell>
        <mxCell id="cMNd7rIfIgeKiUjHtPdR-6" value="" style="sketch=0;pointerEvents=1;shadow=0;dashed=0;html=1;strokeColor=none;fillColor=#505050;labelPosition=center;verticalLabelPosition=bottom;verticalAlign=top;outlineConnect=0;align=center;shape=mxgraph.office.devices.cell_phone_android_standalone;" vertex="1" parent="1">
          <mxGeometry x="187" y="287" width="24" height="44" as="geometry" />
        </mxCell>
        <mxCell id="cMNd7rIfIgeKiUjHtPdR-7" value="customer TV app" style="text;html=1;strokeColor=none;fillColor=none;align=center;verticalAlign=middle;whiteSpace=wrap;rounded=0;fontStyle=1" vertex="1" parent="1">
          <mxGeometry x="50" y="99" width="110" height="30" as="geometry" />
        </mxCell>
        <mxCell id="cMNd7rIfIgeKiUjHtPdR-8" value="customer mobile app" style="text;html=1;strokeColor=none;fillColor=none;align=center;verticalAlign=middle;whiteSpace=wrap;rounded=0;fontStyle=1" vertex="1" parent="1">
          <mxGeometry x="50" y="165" width="110" height="30" as="geometry" />
        </mxCell>
        <mxCell id="cMNd7rIfIgeKiUjHtPdR-9" value="internal LAN facing&amp;nbsp; app" style="text;html=1;strokeColor=none;fillColor=none;align=center;verticalAlign=middle;whiteSpace=wrap;rounded=0;fontStyle=1" vertex="1" parent="1">
          <mxGeometry x="40" y="230" width="110" height="30" as="geometry" />
        </mxCell>
        <mxCell id="cMNd7rIfIgeKiUjHtPdR-10" value="mobile executive app" style="text;html=1;strokeColor=none;fillColor=none;align=center;verticalAlign=middle;whiteSpace=wrap;rounded=0;fontStyle=1" vertex="1" parent="1">
          <mxGeometry x="50" y="294" width="110" height="30" as="geometry" />
        </mxCell>
        <mxCell id="cMNd7rIfIgeKiUjHtPdR-11" value="" style="sketch=0;pointerEvents=1;shadow=0;dashed=0;html=1;strokeColor=none;fillColor=#505050;labelPosition=center;verticalLabelPosition=bottom;verticalAlign=top;outlineConnect=0;align=center;shape=mxgraph.office.devices.tv;" vertex="1" parent="1">
          <mxGeometry x="169.5" y="99" width="59" height="45" as="geometry" />
        </mxCell>
        <mxCell id="cMNd7rIfIgeKiUjHtPdR-13" value="" style="html=1;verticalLabelPosition=bottom;align=center;labelBackgroundColor=#ffffff;verticalAlign=top;strokeWidth=2;strokeColor=#0080F0;shadow=0;dashed=0;shape=mxgraph.ios7.icons.data;fillColor=none;fontColor=default;" vertex="1" parent="1">
          <mxGeometry x="500" y="110" width="40" height="44.1" as="geometry" />
        </mxCell>
        <mxCell id="cMNd7rIfIgeKiUjHtPdR-14" value="" style="sketch=0;outlineConnect=0;fontColor=#232F3E;gradientColor=none;fillColor=#232F3D;strokeColor=none;dashed=0;verticalLabelPosition=bottom;verticalAlign=top;align=center;html=1;fontSize=12;fontStyle=0;aspect=fixed;pointerEvents=1;shape=mxgraph.aws4.traditional_server;" vertex="1" parent="1">
          <mxGeometry x="502.69000000000005" y="215" width="34.61" height="60" as="geometry" />
        </mxCell>
        <mxCell id="cMNd7rIfIgeKiUjHtPdR-16" value="" style="html=1;verticalLabelPosition=bottom;align=center;labelBackgroundColor=#ffffff;verticalAlign=top;strokeWidth=2;strokeColor=#0080F0;shadow=0;dashed=0;shape=mxgraph.ios7.icons.data;fillColor=none;fontColor=default;" vertex="1" parent="1">
          <mxGeometry x="568.77" y="110" width="40" height="44.1" as="geometry" />
        </mxCell>
        <mxCell id="cMNd7rIfIgeKiUjHtPdR-17" value="" style="sketch=0;outlineConnect=0;fontColor=#232F3E;gradientColor=none;fillColor=#232F3D;strokeColor=none;dashed=0;verticalLabelPosition=bottom;verticalAlign=top;align=center;html=1;fontSize=12;fontStyle=0;aspect=fixed;pointerEvents=1;shape=mxgraph.aws4.traditional_server;" vertex="1" parent="1">
          <mxGeometry x="571.46" y="215" width="34.61" height="60" as="geometry" />
        </mxCell>
        <mxCell id="cMNd7rIfIgeKiUjHtPdR-19" value="" style="shape=image;verticalLabelPosition=bottom;labelBackgroundColor=default;verticalAlign=top;aspect=fixed;imageAspect=0;image=data:image/png,iVBORw0KGgoAAAANSUhEUgAAAMUAAADFCAYAAADkODbwAAAABGdBTUEAALGPC/xhBQAAACBjSFJNAAB6JgAAgIQAAPoAAACA6AAAdTAAAOpgAAA6mAAAF3CculE8AAAABmJLR0QA/wD/AP+gvaeTAAAAB3RJTUUH4QgHFw8QPy2ooQAAIbFJREFUeNrtXWtgVNW1/tY+M0lIouUlkplEwRdKrBUnkxD1tljba+sttpLM1Fdtbb1a7VUCgu9qUEFUlOC1tbRVrwjinUxoLda2VyreVoXMJFLF+MSCJDOJIA9L3jOz1/0R6O1DcmbOnDNzJtnfT9g5s/da69tr7cdaG1BQUFBQUBgOpESQeXR4A6cDdC6BvACfBNA4gD8D0CcA7wPoPSYZAhy/Lw3NeV1JTJFiRKLrtFVFMm/MvzPhagAnJ/2HTG8TyZWQY37map3dqySpSJHzYDBFvcHvAFgKYFIan/qIiW5yh2pWEYiVZBUpchJRz9MToTmeZKbzTaTZBoeIX3Z08yUfKQkrUuRWuFQZmJpg+h2AEy34/HYp6Lyy5tr3laQVKXKJEC8DcFnpiIQWP6tk88U7lMTNhVAiMBd7qlYfmWD6jcWEAACXTDh+s/usZ49QUleksDX6ZcGjAKZl6OdOHhgc/LGSugqf7Luwrgyex8y/zfjMxji/pMX3G6UB5SlsBUa9YOYHs/HbEljKYDXBKVLYzEtUTP8agPIs+fvTIpXBf1NaUKSwmSTpu1l2VVcoJag1hX28hGd9IYv+fQDysrrGd/D4sk3+PqUR5Smyv54Qg2dmmRAAUEAJVCttKFLYBPJ0e3RDfE7pQpHCJjEoHWeLfhCfoLShSGGP8Il5rE268hmlDUUKe3gKAac9PAXylTYUKWziKtBjD4+FA0oZihQ24QR12sJTMEWVNhQp7EEKwjv26Il8V2lDkcIupHjVDv3QSHtFaUORIuvYfvovxgrJ3wOQ1bxpAjgOOXdP1eojlVbSlqWCsXVEvYhUll9GjAeQXkECsxXaCXB9yRQ8Ro3+hNKUIkVG0OkNfEECKwCy8wlyK0muc7X6X1YaU6SwDB1VTaVgXkLMl+WI7JiAIOJioWtLzYdKg4oUpiHqWV/IWv+NYNwEoCAHh9AL4D+dvXzPpDZ/t9KoIkUa6wamSGWwloAHwDh2JDg7JtzmDtU+pQqqKVKk7h2qAh6WWAHQWSNO6YTmRILmlrXWNitNK1LoYoenqcQhuJ7AV8LYlnWcQY8T5GSALrDQiz1HoD8D+AEAzcAnJBOtcdLgQlVtUJHiU9FWHsgbV4hrGHQXAKN7/S9KyXWlx+Gtzh20hYHPWtjldzrl3tNKaMKpINkA0OcNWkA3gAd79xbde+K28weUJShSAAAi3uBsBjcQcJxBKW5j4NbSkK8RACIVwR+A+BHrlcd1rrB/xaExALwCwFSDn3ufCbcdGoMixWhdN3iCJ7Pg5QC+YvATPSAs+9tZ9sOz14xzDOS9B2BiBoawj2TsJFfrJR8DQHt1YIxI0PVg3AbAYOVA3qCxY97kljlvKlKMIrRXB8aLON0J4FoADiOWw0Sr81jeOCns7/o7r1PR+DAI1w2zGAAIPQASw4VpBHwyVMuJjhxegfSoK1x77d/+284Za13C6VyaxnlKnEGPCzl42yHCKVKMUPCsjY7Ont3fZdBiozM5ASEpxNzS5prN/+R5Zj5zChLa64zhk44E4/zJxRNf6OrbfZJM4AQiTAZEASD7mdFFDvl+SZl4L7KDZhGwQadLCSbN82kvHnV6m7wScgVguKDBXgLfVTIFj4ymKyOjhhQd3sZzAW4g0KlGlx5MuHW4Pf6IN/BbgM4bVuDEz7tC/qQLl0W8gV8BNHvYbzJvdLX4v/jpjungWQvTgwCXGZtN6G0SmOcK1f5OkWIkhEpVwRM1yYsZ8Bn8RB+Ah/VOgyMVgQtA9KyOsGPM/Fl3iz/pvIednmeO14TWBgyfakpAjSvsW3e4/+86bVVRomDMwjRP5Z9zQMw9OlzzZ0WKHMSu8kBxrIgWgHGznkENZwRCi1+n9wZEW3kgb2yh2Dr0qONwMzo95GqpvSFlF1UZvB/MC3WabR8s6p4+9aUr+of3PGvLmJyLiflbBmUyCOAnBWLghxOaL/vLSLSdEZdPwagXHZWNl8cKaRsYdxojBL9GhM+7w77ZyTyKMraI6vQIAWD3QFy728iY8pzOu4euhA+LqfndxfP1vuUOX9xeGqq9nIX4IhhvGOkOgOv7Zf7bUW/gKkb9iLOhjHkK9gW09j/LKU4hSsFUKIkcAO+JSbF9SmuNKTnO7Z5glRCyAaCZBj+xh8B3p7Kw7Dpz3SQZS7zHOuVlCHy1K+z/qdGxRSsbr2TGz3S02Z2Ixacds+XiaLITyMGckGUAjjLYtRawqHO31JiS9bdzxlqX5nBMAWiCYI4ziZ64jEXKjhM7MrXYt5QUO2esdTk0h58JXwOhCoziwzT9GMCLBPwq4eB1qdZDTfdKNwExBh7tl3zH8a3+T1ILbRofA0OnuDK/7poCTzpKZdSLiHf65qG3t4cL0bDK1eL7dirfPni2chOAeTBW/nPoirrkBa5W/86UyO5ZXwgxMAfgCxj4IoAJh2l6AOBmgljvgAz841a47UkRqQhMA1E9ATV625Ofgv0EPDIQczw49U8X7tcTKGv91wG4fRjC6elzgxCYW9Lsfyv1cQZngLhFLwyVjHPKWnwvpS1Xb+OZAF7W0RtLSdVGLvtFKgLTSOChNF5z7QXhgcHC7qV6a5sPz14zztmffwOI/4NTL+I2yECAE7yo7DX/NluT4v0Tns8vHNtzFwjzYexQ7O9icDDNdbfUrv10AwnOBvAwwFMMfv9dyTS/rKX2eeNGGvhfvTtHBDS6wj6/aROOt3EtgIt0iL7ZFfadafR6eMTb9CUMnW9MN2hW7Ux8e2nIt+pTJzNv46UMLE8jZPsrOQi4f18v313e5h+0HSminsAxLOhZAKebTNvHe/cWXXvoGkXU03QGa3IFGGcb/OI+EO7b38PL0xFkpCJ4MYif1mnWL7T4KWa+YNpR1VRKUr4DoGj4MIovd7X4nzL6Oy2elU6XGHctQIvYYDlOAl6SpNUdOljcPuuJgryeIx4F+Dvmbq5wWMYT30h2LZURUkRnPnMKJ7QXAUy2KMz7PRC/AnAsQJpXpR0OsWDyq3N2pbWgH7pj9LZe4hEBd7vCvjtMD08rG+sP7qwN28zZyyenm2nXUbluAnHijnTlronYHZxwPMHALItspEMK+qIZb4unTYrojKZj4ZCbGCixeFMgbjQkI+aNCU3UlTXXvpFJo9QG+qZNfuNy00tqJk1KpsWultrbzYkEms5gIRsA/Eum9ZcKMViI6tLmmo6skWLIHRa9AtAZsCWGj20tDV9A33KFa1dbNbIkw7cBmeBTzVyMmrCWs1bjQKhnX9Hn08kNSevgxdlTfIdNCdEDwqLBogMnmUkIACApH9AjBMCbS8I1a6wc4NAGBP9Bp1m+5qB7Tf3dcO166ZDTQbj5YIKSrcBAZdHY3h9mxVNEKgLTiGirgS1XS2VCQJARv8Edvrjd9Nk52S1R5pllLf6Q1YNNdksYzP/qbvG/YEEY56aEuNduJX8IiElKnFoauui9DHsKutNOhGBwGMDZrrDPbwUhGPWCwQ36yqcnM0GIg95iCwj/pa8qWs6zNpoez5dt8kdKQ7WXS+aZAG+2kbdwEmuGNzgMkWLnjLUukOFbp2YjSuCr3eG3ZrrDPssKHXdWln9X7zQZhO5EPHZbJgevObRbCNA7hS+PdH/8Pav6UNbiD7nCvjOZ8G0AXXYwCgL8u7yByRkjhaZpl2ZgJ0HXRQJ4OC8v72RX2P9TQr206rd2n/XsEWDcpdsnxhKz9sqTxeRX5+xiwhJ9Z4El7dWB8dbpg7g05FulDfSdAMIiEAazaR8MOAdBl2aMFESGrwGYpwSiBnfYN/eoV75u+es9g7HYD/W2nBn480BR9/JsyGJ/DzcApBc/j9cSdLvlJH3j8h53yFfPkD+ygbf4akZIwbM2OhiYme0BS+ZTMvE7Oz3PHA/m63UFSbxA776PVShv8w+C5UJd3TGu6/QGyzMzVYuTbRBFVbMvoFlOimj37uNhi3qqhtNKUwsVhVgO/ZyMF10h/y+yKQ13i/9XAOulizokZENmZunM6EcHhR07xXGWk4IF3PZYSLHb6gSXobzu4fOjASSkoHm2kIkm5x1caw3X6kvtFUFLw9+h2ZlddpCJQ0qX5aQQNnmrmQHnjlnH5ln2/VkbHRjagtXDSrOuj6QL1+aL3mbGT3R1KHjF+yc8b9nzwh+9218AY/ekzA+zIY60nBTMIo5RgM6ePdcmEQLsIxm70079jhcM3omhpK3hZpQTxozv/oFVfRCJAtsc5ElGwnJSkJT7bDLePqsWtu3VgfEM1j38IVC93YqFHfvypfvAVK/bd6Y7je7j6+HgzdxBO8iDROr2amBNkbDHizhMOyyb6eJ0Nw6fFnno99+Oyj2P2tHLuabKnxCwVafZkYMQiyw0xx12kEU8oe2wnBSu8EUduu45MyttS+L4zqrAdABX6f48yfkVrVfH7EgKavQnJHFdEpsVV0arAh5L+kBsh3VWl5GiGKmHT0Mpjn/MuqNg3mhJDJqg5dA9ref1rrD/t3ZeE5WG/C+C+Zd6+meJFUM1a83WDzZmfXIwaKeGtjSZ8MssjzcBTfza7I9GKwMXgvCvOs0GmeSCXNgscJB2AwCddRedFakM1ppukJKfAyCzOX5m+kXGSJHXw+uSuIRmJV5IN7vqH9FWHshjpvuSiAtWGL2SnGkMlbekhiQW3Q9GPesLTV3XtPp3gnWLQ1uJPdIpf5kxUkxq83cz0U+zNgMQP2D2N8cV0g0ATtRptqs/IRcjh+DslYv1qwtymRT9N5j+4yQeyNa4CXg01fphaZECAKQmlwLIwvYsbygN+V8084sfVT19NAM360uab021WFq2ManN383AbUkY0S1RT+AYM3/bHa7ZAOD3WRj27j7Jy4z+sWFSlG3y72VCXYYH2ysTuMb0BYp03gf9d+62uI5NIqHHhnCF254kQC/xaYwUZLoXlIKuwVDl9gzOm7g+nckrrbtDB/Of12RsrIRrzK4IF/U0ncGAbgVugqjL1YdLCPXy4BYt63iLS6OewNlm/vbBkjM/yOBwn3C3+J5J5wNpX6gbLOq+EoSXrSc/7jW7CAGDiTW5Igk5POMK1/wBOYzSkH8TAL3qH8QCK8y+aOkO+54A437Lyc+8cX8vfz/d76Q9+KkvXdHv7OGvkkXnBn8lRNh3q9nf7fQ2XZpEpcE+ioubMQIgHXwTAJ06VHRGxDv9crN/293iu8liYrwAHvM1M8pnmjIjTGrzd0d533kAzM626mHwFVYQIupZX8hg/RiacL9rS82HI4EUZZv8EQbu0x8yLd1TtfpIa4hB3wPQa+6ciYddRRPPd7XONuW7prnJitarY+6w7z+I6CsE+sAM5ssEn14a9luzuBX9twDQ223p0Pr7HsAIAjt4WRL3ko7uk/mWeEd3S+3jTIkZMGFXikAfgPk8d9g3l146x7Tb25Zc8R0qzjvhOxLy+hQzsCQDvyOIhw5u51mCiHdtGeB4B0Chzsr+ksNVPc9ldHiDfgL/t95yUQo61YzarIfVQ0XgyyCaD+C8VGyRgK0gPBxN7H3Sivtnlt97j1YFPJLpUmIMm50mwXVwIFi2yR+xvE/exkASD0NucoVrzzJazt7+xGh8iYAv6DT7hTvsm2N1X9qrA27EUSt0Tt+J6SEGVrtbardYumDPhALaq4InCsnDXo0YLOoek4nE/0hF01kg+UedsUsBMbMkXBPGCEWHN3A6gVqgkyFHAue5mn3/Y3V/huoSFw97niEFnWSl5zJ9TZET8TTqBUiu0J0MCP81kgkBAKVh/58APK4rMwlLqgvaGaOKFJGK8n8HoJc/cCCWELePBnloTu12APt1mk2P9nx8lSLFCMSeqtVHEqE+iYDyHrNea7U7Jr86ZxcD9yTR9O6OynUTFClGGAY4vx46Ly0R6IPevUUrRtOs2CX3PgzgXZ1m4w++ZqRIMVLQfkbgBGZcqxs/s5yfzmMfuYiK1qtjTJzMtfFr2z2BzypSjJTY2YEVSKLK31CVvdGH0pD/1wz8RqeZQwharkgxIhbXgS8n8S50Qkr9RP8RbQiS5utXF8S5B5/3UqTIVfCsjQ5QErMb48dlrf6to5kUrtbad2QSd9cIWG5ldUFFCqu9RPee6wDoVdnex0JbBAXEYo5FAHYPP3/w8YVju69XpMjFxXV1YDwR6583MP2wNDRnj6IEMPVPF+5nIv1dJqIf7vA0lShS5BgoQUsA6L3c85areMJKRYf/h/tY+TOAX9dpdoST+G5FihxCR+W6zxHjSv0Jj+abeeV4REwmjf4EC03/aQHiKzq9TV5FilwZFCcaoFcKnvmXrlDt7xQN/hmlzTUbGdykJ2YJ2WBFdUFFCrO9REWgloFZOs0GpSZuVOY/rMXPh36G3JnRiuA3FSlsjO2zniggoiTygOmhTFxBzmW4Wv07iZPYziY80HXaqiJFCpvC2VO8AMBUnWYfFYj+e5XZJwHOXwJQu160lcgbs0CRwoZorw64iXBTEk1vmdB82V+UxSfjLWb3cjLb2oSbojOajlWksBkoTkvBKNaZ+l5zhdueVOaePNyh2qcAfkWn2RjW5L2KFHZaXFc1zSTgUr1ggIjqCPVSmXoKkw2ISWAu9MrqEy6Oeps+r0hhh7AXTIJlA/TzzZ92hXx/VGZuIIxq9rcSY7W+LmSD1c84K1IkgUhl0+XMqNJp1keSb1XmbRyaFrsRgN5abEa04tTvKFJkEbvKA8XEvCQJf7LU1erfqUzbOI5uvuQjYiTxqA3f+4En8BlFiixhsJBuBeDS0VI7yTHLlFmnj579RQ+CoFf1fVIB0a2KFFlAV2VgKgG6d3QYWGBWjdHRjhO3nT9AkpJ43AZ1HZXPnKRIkWHEmZYBKNChxCvucE2jMmcTF90ttU0AXtBplkesPaBIkUF0VDWdQ4BeOUdJJOpGatnL7BoNzQOgd7v4gmhl8DxFigyAfQGNErIhiaaPuUK1LcqEzUdJuLaNGD/X1ZXE8hbPSqcihcWI7qCrQThNp9kBJ/gOZb7WIeHk2wAMn7FIfEqJNv77ihQW4sOz14wDoJtPzcCiSWF/lzJd61C2yb+XOInqgoxFUc/TExUpLIJjIK8ewPACJmzr21f0iDLbDIRRxRMfYfCbOs3GsXDWK1JYETbNfOYUgv5zwQyuG21V/rIFeumcOCGJ1FXg+7lUXTBnSMEJ7SEGdBZtvKE05P+1MtfMwR2u2UAMPZlrQgz/IIsiRYo4WJXuKzrN4ho75ikzzcKie6i6op53/mK0MvgNRQoT0FYeyAOge02DgUcmt8x5U5loFhbdr/m3EaC7jpPMD26f9USBIkWaGFtI1wOsd2VgL0i7R5ln9uDMy1sEYNgdPwKOy+8pqlOkSANdZ66bRIBuOiQT3aaq/GUXR73y9QME/eqCTHSb3asL2poUiVhiMQN615Db3IUTfq7MMvsoCb/5GIAWnTi32CnkYkUKI4vriuAMAFfoNmSep6r82QOEegkWdUNLvGHx7faKQKUiRcoSlg3QqfLH4CZ3i/8FZY72gbul5hUAejeThSCybXVBW5Ii4g18EyC9JPgBTuBmZYZ2RHwB9KsLVnd6g5coUiSB9urAGEAs1XUkTMvKXvNvUwZoQ28RvrgdoGS20e+zY3VB25FCxOhGgKfoNPsoX+u/X5mffSEdcikIH+rxJ5FfeKMixTDoqGoqBWGh7gxDuFFV+bM3yjb5+wjJVFDhhZ0z105RpDhcSJSQ9wPQc6et7lDbamV29kdJyLcWgF6trTEy4bhvVJEiUhGcQcy6t1vzeovvB+EiXSchWVX5yxEQiEmKOuhVFwT8+d3FuhXOtQS+3+ENnG59vy0Az9roiPZ8/C0w6pLIkku+s4xVrhbft5W55RYi3sbHkcyZU/IW9joDDe6io1ZbcUZluqdor2icFe35+E0Aj5tJCAC9TPHblYnlHhwidgsBn5g4l3+OQE9Eez5+s72icZZtPQXP2ujo7Pl4KQPzrfBATHx7aci/WJlYjnqLysabwFhqwaeZgIdKiibebJbXMMV426sDYyhOTQR81aIo74A2cETJ5DfO61HmlZvYPuWJAudRxV2kf5fNKH4rHTynbJO/L+vhU4tnpVPE6VnrCAEAfEQi/y9LlGnlLpyTihssJAQAfEXEaf3B/JvsksJF4x8G8OUMyPX6iLfxWmVeuYeoNzCXGFdn4KfOHVtIP8pq+BStDFzITOsyKN9BjTWPyrDLHbRXBU/TJLfo59ebusjwl4Z8hsulGvYUu8oDxeD0WZki8hIU/9lIfLt5JILBJKRcmUlCAAAxHtlTtfrIjJNisJDqGMhCBhXNjFYEL1AmZ390VjZ+A6CZWfjpSQMyf0FGSdFWHsgj4AdZkzbxQmVyOeApGFm77MfANUM3rjNEinFF4nwAk7Mnbjor6gmerMzOxl6iKjA9S17iECaKOC7IGCnA/I2sz0IkZyvTs7GXkLBBiCsuNDTlGvmjiLfxzwCmZnnEcehndylkD4UAHFnuQ9Qd9rktJ8WHZ68Z5xjI26t0rpALcIjY5KObL/nI0vBJGxxzjBK1Qq5AyvyU7TVlUrBMjFOiVsgZUnBirOWkECQcStQKuQKi4cskmUIKIt6vRK2QM56CUs/jSJkU8VgsqkStkCsQCURSnviN/FDE27gHwHglcgWbY78rXDs+1Wejja4PXgayezjDwDohebnSuz3BQlwDcLYrAL5s5B11Q6RgxvNE2SUFAeezRlulxveZkW2lYB6invWFQH/W3x1k8POGQi4jf5QoGAwA6M/ymAvAuFPE6b2OysbL1XVyG3gHMHVUNvpY9L8NU6t3GEJfIj/2jMEJ1xg6vMGVBL7KPgrB/wJcVxr2/0mZZxa8Q2Wwglk2AHSWLeyBsLI05Pt+RkkR9QSOYUHvArDTG2aSidY4aXBhqkf7Csawc8Zal3A47yTwlbBPxcl+kjzN1erfmVFSAEC0ovFWJtix7Mx+EJb27i1qUG9qW4O28kDeuEJcw6C7ABxpp74R+BZX2G+4nE5azI7y3gdAeDmDIVKyGAvG0sJxPVs7Kht9yoTNRcQbnP2ZQnqbQQ12IwTAfygpOmpZeqRKE7u8gckxiE1JlM9PFwkg9SP7g4LaICDqSsK1bcqk05gEZz5zCifEcoDOS3EBvk+A9rP16QbbHSJWnW7onHYMOCns73KAzgWw07KhEl5mSkxnoqdScxh//cCXGLylwxtcGfU8PVGZd2porw6Mj3gbV3BC25oiIeIM+qkWx7Q+yTMA3mxh0LSD4uIcM9aSpm1jDnkM/MLsFEQGVrODrzp0FtHpbfJKyBUAqg1+ci+B7yqZgkeo0Z9QJj+M7GdtdHT27P4ugxYDSHUy+b2UPK+s1b/10D90nbaqKJFf+BjA3zS5p69oTsecya/O2WXOHGwiWjwrnSXa+NvAuBlAfpqf28dE80pDtU9+ijumSGXwW8S4D0ZzxZneJoF5rlDt75T5/zM6vI3nAtxAoFNTtKhtDNx6uLpLDKaoN/gdAA8CSDcNoZ+Bxe6iiUvNrD5uyYFXV2VgqmS6k4GLUiUHAZ9I4Mcg7UG9B+O7TltVlCgYsxCMm2B8a/g5jfj6ySH/dkUFoL0qeKImeTEDqW5Q9ICwrHdv0b3J7PhFPU9PZOFcAOAaA4v1fhCeppi4y7Wl5kOzZWDpKXDXmesmJQalD+ALQJg5zOB3AXiJmJ8Dj2lytc5OKfc66gkcIzVxDzF/y2BXBwH8JC8v7/ajXvn6gdFIhl3lgeJYES0w4OWZiVbnsbxxUtjflbKNnLaqKF5QWCvAX2PGrMOFaQR8wuDNDDwrZLzR1XrJx9YtYTMVn6JedM2cdgxLRxmzyBcsnQnB++MJbceU1ppOU1x+VdM5lJANabyLESXwopLwWz8fLa8lMepFpLL8MmLcD+DoFI0nJIWYW9pcY9oCeueMtS7h1I7VJI2VJGJEcgAxsbNky9b2TOmERrCSlwE4yujyCMBcd9j36ogOlTzBKk3jFcyoSvFPI0y41R2qfcrILVS7Y8ReojtYdeQmAPMAGCnPzgQEIXmB0esCtl1EVzWVgnkJMV+Wog30AXjY2cv3TGrzd49U2xnxN0sjFYFpJPAQM51v8BM9ICwbLOxeOvWlK/pzWRZRz/pC1vqvA3A7GMWpbkgILX5dyeaLd4x0mxk1160j3qYvYeh8Y7pBUbUPPTHmW5Wb4w/OBvF/gnFsig7zNSKqc4V8fxwttjKqchBaPCudLjHuWoAWscFXdYh5Y0ITdWXNtW+ktfaZtdHRcWD3KZqGE8A4ChAFgOwHYbeQjvePLh73jhl771FP0xmsyRVgnJ3in+4h8N2j8ZBzVCbmdFSum0CcuANDldON3KeSTLTG4RALUjlFjXrWF0IMzOGhE90vADhimOYHAH6JQP+dcPC6VLMLd3iaShyC6wn8vVTGSECMgUf7Jd9xfKv/k9FoH6M6Wy3qaTqDhWwA8C8GP7EPhPv29/Dy8jb/4OEatVcHxmhxquOhRb+RHbFdIDw0WNi9Qm9dc8gbGrvSzRuEwNySZv9bo9kuVArnoXgbeNj4TV96j0nOLw35f/2P/9PpDXyBIR5j8PEmaGsbAd89XHwf8QZnE7DcwG+9K5nml7XUPq+sQZHCrJ2ZT51pI5WNN4KxBIavvH8q4gBucYd9y/6/78GTpeCHDLxQm5SnU6QY5WivDrgpIe41sIf/dzE5GBrIuteeCHgwlj+42DGQVw/gWqRWmUUy0RotJm8o2eLfrbSuSJEcOSoClYKwIsuv8eihB0BRSgo3afdMkWKU4m+ujBi/om4fVef0OYsihc3wN1fUzcgTybw3GSEn8ooUdgypzgicoGm0xECuQVYcXTpXuhUpFFJCh7fxXAEsZ+Cz9gz7OAzC3NKQf5PSliJF5gwvvfxlqxBlwi0j9Uq3IkWuhFTVgfEiTncCdB2yWc+WsC/PmXfsaM0cNBNCiSA9lG3y72VK/AjZLvDMGNfX3zdJaUSRwiaxlDjTFsrUtLOUMhQpbBKDimm2UKakk5Q2FClsQgousYXDInYpbShS2IUVRbboBg2bn6GgSJHBGVoiZot+MNSzA4oUNnEURPtt0pX9ShuKFLaABH9gC3IytiltKFLYZEkhXrcFOTV79EORQgEk814Fsh7P98XG/EXddVKksAdcrbN7wfyb7HorPKeuhitS2MxdiMez2wF+XCnBtAlGwRSTBFPE2/hGyo+cmIMtrnCtR92MVZ7CZrMLsRB0Q1YISbxAEUKRwp5ri2bf/wBYk+GffaI05H9RSV+RwrbIy8u7BsA7GYp9t2oDfdcpqStS2BpHvfL1A0KLfxVA1GJKtEshzp/8xuU9SuqKFLZHyeaLd2jEZwN436L1ywcJGT+ntLmmQ0lbkSJnMDnk386kVRPj1yYz4tlY/oD3mNaLPlBStiwsVbASprz5PYQImBa6W2rXKqkqUowIHHyb4koGXwWgPJXFNDOtHCw+8Jg6sVakGLFo9wQ+SyS+RGAvCCcBGA9gLIaufu8F4z0ibiaIDSXh2jYlMQUFBQUFBTvh/wBh/dhLjH/AwwAAACV0RVh0ZGF0ZTpjcmVhdGUAMjAxNy0wOC0wN1QyMzoxNToxNiswMDowMD+BDTwAAAAldEVYdGRhdGU6bW9kaWZ5ADIwMTctMDgtMDdUMjM6MTU6MTYrMDA6MDBO3LWAAAAAAElFTkSuQmCC;" vertex="1" parent="1">
          <mxGeometry x="330" y="210.5" width="73.5" height="73.5" as="geometry" />
        </mxCell>
        <mxCell id="cMNd7rIfIgeKiUjHtPdR-20" value="" style="rounded=1;whiteSpace=wrap;html=1;fontColor=default;fillColor=none;" vertex="1" parent="1">
          <mxGeometry x="35" y="69" width="215" height="291" as="geometry" />
        </mxCell>
        <mxCell id="cMNd7rIfIgeKiUjHtPdR-22" value="" style="endArrow=classic;html=1;rounded=0;fontColor=default;startArrow=oval;startFill=1;strokeWidth=3;strokeColor=#333333;" edge="1" parent="1">
          <mxGeometry width="50" height="50" relative="1" as="geometry">
            <mxPoint x="259" y="209" as="sourcePoint" />
            <mxPoint x="319" y="209" as="targetPoint" />
          </mxGeometry>
        </mxCell>
        <mxCell id="cMNd7rIfIgeKiUjHtPdR-23" value="" style="endArrow=classic;html=1;rounded=0;fontColor=default;startArrow=oval;startFill=1;strokeWidth=3;strokeColor=#333333;entryX=1;entryY=0;entryDx=0;entryDy=0;" edge="1" parent="1">
          <mxGeometry width="50" height="50" relative="1" as="geometry">
            <mxPoint x="470" y="208" as="sourcePoint" />
            <mxPoint x="410.5" y="207.5" as="targetPoint" />
          </mxGeometry>
        </mxCell>
        <mxCell id="cMNd7rIfIgeKiUjHtPdR-24" value="" style="rounded=1;whiteSpace=wrap;html=1;fontColor=default;fillColor=none;" vertex="1" parent="1">
          <mxGeometry x="320" y="129" width="90" height="171" as="geometry" />
        </mxCell>
        <mxCell id="cMNd7rIfIgeKiUjHtPdR-26" value="&lt;b&gt;many frontends&lt;/b&gt;" style="text;html=1;strokeColor=none;fillColor=none;align=center;verticalAlign=middle;whiteSpace=wrap;rounded=0;fontColor=default;" vertex="1" parent="1">
          <mxGeometry x="90" y="370" width="60" height="30" as="geometry" />
        </mxCell>
        <mxCell id="cMNd7rIfIgeKiUjHtPdR-27" value="&lt;b&gt;many m2m consumers and datasources&lt;/b&gt;" style="text;html=1;strokeColor=none;fillColor=none;align=center;verticalAlign=middle;whiteSpace=wrap;rounded=0;fontColor=default;" vertex="1" parent="1">
          <mxGeometry x="510" y="370" width="106" height="30" as="geometry" />
        </mxCell>
        <mxCell id="cMNd7rIfIgeKiUjHtPdR-28" value="&lt;b&gt;powerful, scalable and simple GraphQL API powered by lambda&lt;/b&gt;" style="text;html=1;strokeColor=none;fillColor=none;align=center;verticalAlign=middle;whiteSpace=wrap;rounded=0;fontColor=default;" vertex="1" parent="1">
          <mxGeometry x="306.76" y="324" width="120" height="30" as="geometry" />
        </mxCell>
      </root>
    </mxGraphModel>
  </diagram>
</mxfile>
